<svg xmlns="http://www.w3.org/2000/svg" width="200" height="200" viewBox="0 0 200 200">
  <style>
    .empty-cart {
      fill: #f0f0f0;
    }
    .cart-details {
      fill: #e1251b;
    }
    .sad-face {
      fill: #999;
    }
  </style>
  <g>
    <path class="empty-cart" d="M160,120H40c-5.5,0-10-4.5-10-10V60c0-5.5,4.5-10,10-10h120c5.5,0,10,4.5,10,10v50 C170,115.5,165.5,120,160,120z"/>
    <path class="cart-details" d="M150,100H50c-2.8,0-5-2.2-5-5V70c0-2.8,2.2-5,5-5h100c2.8,0,5,2.2,5,5v25C155,97.8,152.8,100,150,100z"/>
    <circle class="cart-details" cx="60" cy="130" r="10"/>
    <circle class="cart-details" cx="140" cy="130" r="10"/>
    <path class="sad-face" d="M100,80c-11,0-20,9-20,20s9,20,20,20s20-9,20-20S111,80,100,80z M90,95c1.7,0,3,1.3,3,3s-1.3,3-3,3s-3-1.3-3-3 S88.3,95,90,95z M110,95c1.7,0,3,1.3,3,3s-1.3,3-3,3s-3-1.3-3-3S108.3,95,110,95z M100,115c-5.5,0-10-4.5-10-10h20 C110,110.5,105.5,115,100,115z"/>
  </g>
</svg>
